<?xml version="1.0" encoding="UTF-8" standalone="no"?>
<!-- Created with Inkscape (http://www.inkscape.org/) -->

<svg
   xmlns:dc="http://purl.org/dc/elements/1.1/"
   xmlns:cc="http://creativecommons.org/ns#"
   xmlns:rdf="http://www.w3.org/1999/02/22-rdf-syntax-ns#"
   xmlns:svg="http://www.w3.org/2000/svg"
   xmlns="http://www.w3.org/2000/svg"
   xmlns:sodipodi="http://sodipodi.sourceforge.net/DTD/sodipodi-0.dtd"
   xmlns:inkscape="http://www.inkscape.org/namespaces/inkscape"
   width="256px"
   height="256px"
   viewBox="0 0 256 256"
   version="1.1"
   id="SVGRoot"
   sodipodi:docname="PaVoSLogo-Erweitert.svg"
   inkscape:version="0.92.3 (2405546, 2018-03-11)"
   inkscape:export-filename="D:\Uni\Semester-4\PSE\Bilder\PaVoSLogo-Erweitert.png"
   inkscape:export-xdpi="482"
   inkscape:export-ydpi="482">
  <sodipodi:namedview
     id="base"
     pagecolor="#ffffff"
     bordercolor="#666666"
     borderopacity="1.0"
     inkscape:pageopacity="0.0"
     inkscape:pageshadow="2"
     inkscape:zoom="3.7013985"
     inkscape:cx="85.079708"
     inkscape:cy="136.72432"
     inkscape:document-units="px"
     inkscape:current-layer="layer1"
     showgrid="false"
     inkscape:window-width="1920"
     inkscape:window-height="1017"
     inkscape:window-x="-8"
     inkscape:window-y="-8"
     inkscape:window-maximized="1"
     inkscape:grid-bbox="true" />
  <defs
     id="defs1366">
    <inkscape:path-effect
       effect="powerstroke"
       id="path-effect5814"
       is_visible="true"
       offset_points="0,0.5"
       sort_points="true"
       interpolator_type="CubicBezierJohan"
       interpolator_beta="0.2"
       start_linecap_type="zerowidth"
       linejoin_type="extrp_arc"
       miter_limit="4"
       end_linecap_type="zerowidth" />
    <inkscape:path-effect
       effect="bounding_box"
       id="path-effect5770"
       is_visible="true"
       linkedpath=""
       visualbounds="false" />
    <inkscape:path-effect
       effect="bounding_box"
       id="path-effect2064"
       is_visible="true"
       linkedpath=""
       visualbounds="true" />
    <inkscape:path-effect
       effect="bspline"
       id="path-effect2060"
       is_visible="true"
       weight="33.333333"
       steps="2"
       helper_size="0"
       apply_no_weight="true"
       apply_with_weight="true"
       only_selected="false" />
    <inkscape:path-effect
       end_linecap_type="zerowidth"
       miter_limit="4"
       linejoin_type="extrp_arc"
       start_linecap_type="zerowidth"
       interpolator_beta="0.2"
       interpolator_type="CubicBezierJohan"
       sort_points="true"
       offset_points="0,0.5"
       is_visible="true"
       id="path-effect1619"
       effect="powerstroke" />
    <inkscape:path-effect
       end_linecap_type="zerowidth"
       miter_limit="4"
       linejoin_type="extrp_arc"
       start_linecap_type="zerowidth"
       interpolator_beta="0.2"
       interpolator_type="CubicBezierJohan"
       sort_points="true"
       offset_points="0,0.5"
       is_visible="true"
       id="path-effect1555"
       effect="powerstroke" />
  </defs>
  <metadata
     id="metadata1369">
    <rdf:RDF>
      <cc:Work
         rdf:about="">
        <dc:format>image/svg+xml</dc:format>
        <dc:type
           rdf:resource="http://purl.org/dc/dcmitype/StillImage" />
        <dc:title></dc:title>
      </cc:Work>
    </rdf:RDF>
  </metadata>
  <g
     id="layer1"
     inkscape:groupmode="layer"
     inkscape:label="Ebene 1">
    <g
       style="display:inline"
       inkscape:label="Ebene 1"
       id="layer1-0"
       transform="matrix(3.1016784,0,0,3.1016784,27.158745,0.13991084)">
      <circle
         r="25.455845"
         cy="31.649864"
         cx="31.819805"
         id="path1374"
         style="display:inline;opacity:1;fill:none;fill-opacity:1;fill-rule:nonzero;stroke:none;stroke-width:0.62362206;stroke-linecap:butt;stroke-linejoin:round;stroke-miterlimit:4;stroke-dasharray:none;stroke-dashoffset:0;stroke-opacity:1" />
      <path
         inkscape:connector-curvature="0"
         id="path1508"
         d="m 13.097467,21.551506 c 1.418226,2.423661 2.604638,4.798984 2.574219,7.761719 -0.03579,3.486212 -1.578305,6.234542 -1.777344,10.601562 -0.145065,3.182804 0.861445,6.752858 3.066407,9.052734 1.815708,1.893868 4.730266,3.087811 7.341796,2.835938 0.279883,-0.02699 0.560283,-0.07164 0.841797,-0.126953 -1.413224,-1.450564 -2.797427,-3.402113 -3.792968,-6.076172 -0.973337,-2.61442 -1.438939,-5.513397 -1.619141,-8.748047 -0.06355,-1.664817 -0.0709,-3.051144 -0.195312,-4.591797 -0.162276,-2.009563 -0.476084,-3.412745 -0.867188,-4.488281 0.400548,1.101508 0.77265,2.428216 1.0625,4.466797 0.222376,1.564019 0.319879,2.905432 0.5,4.578125 0.288253,3.204524 0.84585,6.004856 1.865234,8.490234 0.438211,1.06841 0.939311,1.996929 1.46875,2.828125 -0.927732,-2.196826 -0.995749,-4.841428 -0.224609,-7.046875 1.111809,-3.179758 3.932586,-5.764181 6.947266,-7.126953 0.846161,-0.382503 1.644036,-0.666794 2.417968,-0.912109 -0.08866,-0.186341 -0.177591,-0.374372 -0.273437,-0.554688 -2.482223,-4.669821 -7.190045,-7.534524 -12.955078,-9.158203 -1.442975,-0.406403 -5.149298,-0.909549 -6.38086,-1.785156 z m 33.408204,3.837891 c -1.51833,2.362239 -3.098781,4.497573 -5.753907,5.8125 -3.12425,1.547259 -6.2724,1.416092 -10.255859,3.216796 -2.903254,1.312402 -5.630041,3.826424 -6.681641,6.833985 -0.865957,2.476621 -0.612587,5.61593 0.794922,7.830078 0.570635,0.897663 1.326248,1.723818 2.179688,2.453125 -0.03183,-0.562215 -0.02187,-1.14818 0.09961,-1.779297 0.248116,-1.289003 0.838711,-2.597203 1.763672,-3.890625 1.621157,-2.26695 4.102352,-4.233111 6.457031,-5.498047 1.595951,-0.838581 3.331866,-1.423531 4.822266,-2.080078 2.122086,-0.934815 3.356611,-1.832621 4.238281,-2.890625 -0.891903,1.070284 -2.046171,2.0023 -4.152344,3.068359 -1.462853,0.740437 -3.168082,1.431454 -4.662109,2.335938 -2.258601,1.337945 -4.576694,3.321134 -6.042969,5.521484 -0.831134,1.247234 -1.320404,2.455548 -1.507812,3.597657 -0.149195,0.90923 -0.08659,1.718229 0.07813,2.449218 1.602414,1.080323 3.45313,1.788455 5.27539,1.832032 4.668888,0.111648 9.666036,-2.79301 12.34961,-6.615235 3.038869,-4.328272 3.460744,-9.824073 2.296875,-15.699219 -0.291314,-1.470536 -1.521586,-5.003452 -1.298828,-6.498046 z"
         style="fill:#00b900;fill-opacity:1;stroke:none;stroke-width:1px;stroke-linecap:butt;stroke-linejoin:miter;stroke-opacity:1" />
      <path
         id="path1772"
         d="m 34.970703,9.9257812 c -5.637739,0.062227 -11.154609,2.7405638 -14.5625,7.8124998 a 1.2568186,1.2568186 0 1 0 2.085938,1.402344 c 6.275022,-9.3390649 20.629963,-9.5116039 27.007812,2.179687 a 1.2568186,1.2568186 0 1 0 2.205078,-1.205078 C 48.12832,13.555068 42.120912,10.255824 36.099609,9.9492188 35.723278,9.9300559 35.346552,9.9216328 34.970703,9.9257812 Z m 0.632813,7.4003908 c -3.967881,-0.223479 -7.932579,1.41766 -10.150391,4.93164 a 0.91115201,0.91115201 0 0 0 1.541016,0.972657 c 3.654272,-5.789961 13.369905,-5.512434 17.193359,1.251953 a 0.91101338,0.91101338 0 1 0 1.585938,-0.896484 C 43.541627,19.637459 39.571396,17.549651 35.603516,17.326172 Z m -0.648438,5.597656 c -2.075147,-0.07743 -4.151449,0.712107 -5.74414,2.248047 a 0.65006498,0.65006498 0 1 0 0.902343,0.935547 c 1.539928,-1.485055 3.581198,-2.123464 5.527344,-1.814453 1.946146,0.30901 3.814585,1.547411 5.039063,3.970703 a 0.65006498,0.65006498 0 1 0 1.160156,-0.585938 C 40.452095,24.93132 38.20334,23.384423 35.84375,23.009766 c -0.294949,-0.04683 -0.592222,-0.07488 -0.888672,-0.08594 z m -0.732422,4.75 c -0.203086,0.0099 -0.405512,0.03548 -0.605468,0.07813 -0.533218,0.11373 -1.048066,0.344662 -1.509766,0.705078 a 0.51205122,0.51205122 0 1 0 0.630859,0.806641 c 1.355805,-1.058381 3.343788,-0.629838 4.322266,0.941406 a 0.51205122,0.51205122 0 1 0 0.869141,-0.541016 c -0.833458,-1.338369 -2.28543,-2.059365 -3.707032,-1.990234 z"
         style="color:#000000;font-style:normal;font-variant:normal;font-weight:normal;font-stretch:normal;font-size:medium;line-height:normal;font-family:sans-serif;font-variant-ligatures:normal;font-variant-position:normal;font-variant-caps:normal;font-variant-numeric:normal;font-variant-alternates:normal;font-feature-settings:normal;text-indent:0;text-align:start;text-decoration:none;text-decoration-line:none;text-decoration-style:solid;text-decoration-color:#000000;letter-spacing:normal;word-spacing:normal;text-transform:none;writing-mode:lr-tb;direction:ltr;text-orientation:mixed;dominant-baseline:auto;baseline-shift:baseline;text-anchor:start;white-space:normal;shape-padding:0;clip-rule:nonzero;display:inline;overflow:visible;visibility:visible;opacity:1;isolation:auto;mix-blend-mode:normal;color-interpolation:sRGB;color-interpolation-filters:linearRGB;solid-color:#000000;solid-opacity:1;vector-effect:none;fill:#00b900;fill-opacity:1;fill-rule:nonzero;stroke:none;stroke-width:1.02400005;stroke-linecap:round;stroke-linejoin:miter;stroke-miterlimit:4;stroke-dasharray:none;stroke-dashoffset:0;stroke-opacity:1;color-rendering:auto;image-rendering:auto;shape-rendering:auto;text-rendering:auto;enable-background:accumulate"
         inkscape:connector-curvature="0" />
    </g>
    <path
       sodipodi:nodetypes="cccscscccscsscssccccscssc"
       inkscape:connector-curvature="0"
       id="path2009"
       style="font-style:normal;font-variant:normal;font-weight:normal;font-stretch:normal;font-size:medium;line-height:1.25;font-family:'Malgun Gothic';-inkscape-font-specification:'Malgun Gothic';text-align:center;letter-spacing:0px;word-spacing:0px;text-anchor:middle;fill:#00b900;fill-opacity:1;stroke:none"
       d="m 75.484375,201.57422 v 5.45898 2.7295 c 0,0 -0.02575,0.91056 0,1.36474 0.07447,1.31335 0.04687,1.9268 0.04687,1.9268 0,0 -0.05043,-0.54173 -1.666894,-0.58593 -0.523893,-0.0143 -1.524506,0.0239 -1.524506,0.0239 v -14.375 -7.1875 c 0,0 -0.01504,-2.39593 0,-3.59375 0.0311,-2.47668 -0.01327,-4.82547 -0.01327,-4.82547 0,0 0.233486,1.18744 3.89022,1.23172 1.292223,0.0156 3.876953,0 3.876953,0 3.020833,0 5.371094,0.7487 7.050781,2.24609 1.692709,1.49739 2.539063,3.60026 2.539063,6.30859 0,2.79948 -0.989583,5.07162 -2.96875,6.81641 -1.979167,1.74479 -4.440104,2.56511 -7.382813,2.46094 z m 0,-14.90235 V 198.625 h 3.613281 c 2.356771,0 4.153646,-0.53385 5.390625,-1.60156 1.25,-1.06771 1.875,-2.59115 1.875,-4.57032 0,-3.85417 -2.278646,-5.78125 -6.835937,-5.78125 z" />
    <path
       style="font-style:normal;font-variant:normal;font-weight:normal;font-stretch:normal;font-size:medium;line-height:1.25;font-family:'Malgun Gothic';-inkscape-font-specification:'Malgun Gothic';text-align:center;letter-spacing:0px;word-spacing:0px;text-anchor:middle;fill:#00b900;fill-opacity:1;stroke:none"
       d="m 102.10547,191.49609 c -2.604168,0 -5.155823,2.36633 -5.674315,3.0177 -1.193224,1.49903 -1.611273,2.60276 -1.611273,2.60276 0,0 1.339856,-1.21453 2.658634,-2.00303 1.363772,-0.8154 3.013644,-1.56384 4.629654,-1.46742 1.21203,0.0723 2.57454,0.54479 3.31679,1.50568 0.81923,1.06054 0.68328,2.17796 0.68328,3.96182 0,0 -2.01174,0.34051 -3.0516,0.57781 -1.03986,0.2373 -2.07509,0.49279 -3.11914,0.71093 -4.301977,0.89886 -6.757812,2.84505 -6.757812,6.66016 0,1.79687 0.585937,3.23568 1.757812,4.31641 1.184896,1.06771 2.779948,1.60156 4.785156,1.60156 2.786454,0 5.395834,-1.64193 6.164064,-2.87891 l -0.043,2.42383 c 0,0 1.77377,-0.10488 2.62157,0.11008 0.28193,0.0715 0.7839,0.38318 0.7839,0.38318 0,0 0.004,-1.46947 0.005,-2.2042 5.9e-4,-0.55859 0,-1.67578 0,-1.67578 v -3.35547 -6.70898 c 0,-5.05209 -2.38281,-7.57813 -7.14844,-7.57813 z m 4.02344,9.72657 v 2.92968 c 10e-6,1.93859 -0.49349,3.57617 -1.57422,4.74805 -1.08073,1.17187 -3.52214,2.25977 -5.175784,2.25977 -0.603885,0 -1.148648,-0.082 -1.636718,-0.24414 -0.316774,-0.43684 -0.620465,-1.06424 -0.59375,-1.86133 0.01248,-0.3723 0.101898,-0.76014 0.294921,-1.125 0.183845,-0.34752 0.462496,-0.67391 0.855469,-0.93555 0.509894,-0.33042 1.0148,-0.5455 1.513672,-0.71484 0.52144,-0.17699 1.03176,-0.30306 1.51172,-0.44922 0.55312,-0.16844 1.02263,-0.34818 1.47851,-0.60742 0.59289,-0.33718 1.04684,-0.74962 1.43165,-1.17969 -0.38464,0.42988 -0.85988,0.82438 -1.46485,1.11719 -0.46329,0.22424 -0.93917,0.36278 -1.49414,0.47851 -0.48449,0.10103 -1.00457,0.17891 -1.558593,0.31055 -0.528289,0.12552 -1.089741,0.30132 -1.671875,0.61328 -0.490836,0.25813 -0.877665,0.61133 -1.160156,1.02344 -0.295914,0.43169 -0.467461,0.91478 -0.535157,1.39453 -0.05689,0.40318 -0.03615,0.77812 0.02734,1.12695 -0.678592,-0.63561 -1.169839,-1.53604 -1.240234,-2.44726 -0.08983,-1.16278 0.304683,-2.4874 1.128906,-3.3125 1.235775,-1.23709 3.223265,-1.52049 4.962899,-1.69727 2.63063,-0.26732 4.90039,-1.42773 4.90039,-1.42773 z"
       id="path2011"
       inkscape:connector-curvature="0"
       sodipodi:nodetypes="cscsaacscscsccacaccsccsccscccccccccccccccssss" />
    <path
       sodipodi:nodetypes="ccczzczzcccscccccccsc"
       inkscape:connector-curvature="0"
       id="path2013"
       style="font-style:normal;font-variant:normal;font-weight:normal;font-stretch:normal;font-size:medium;line-height:1.25;font-family:'Malgun Gothic';-inkscape-font-specification:'Malgun Gothic';text-align:center;letter-spacing:0px;word-spacing:0px;text-anchor:middle;fill:#00b900;fill-opacity:1;stroke:none"
       d="m 137.125,181.11719 -5.35156,15.6875 -2.67578,7.84375 c 0,0 -0.8682,2.88613 -1.33789,3.92187 -0.46969,1.03574 -0.81455,1.66593 -1.33789,2.32194 -0.52334,0.65601 -1.72852,1.59994 -1.72852,1.59994 0,0 -1.20981,-0.94334 -1.72852,-1.59994 -0.51871,-0.6566 -0.84894,-1.28605 -1.30859,-2.32194 -0.45965,-1.03589 -1.3086,-3.92187 -1.3086,-3.92187 l -2.61719,-7.84375 -5.23437,-15.6875 c 0,0 3.04815,1.24043 3.53516,2.625 l 2.02149,5.74707 2.02148,5.74707 3.51762,11.5419 c 0.24739,0.71615 1.12758,1.58635 1.12758,1.58635 0,0 0.5958,-0.72698 0.92132,-1.62541 l 3.9257,-11.52237 2.07032,-5.73731 2.07031,-5.7373 c 0.4876,-1.35126 3.41793,-2.625 3.41793,-2.625 z" />
    <path
       sodipodi:nodetypes="scscscsssscscscsss"
       inkscape:connector-curvature="0"
       id="path2015"
       style="font-style:normal;font-variant:normal;font-weight:normal;font-stretch:normal;font-size:medium;line-height:1.25;font-family:'Malgun Gothic';-inkscape-font-specification:'Malgun Gothic';text-align:center;letter-spacing:0px;word-spacing:0px;text-anchor:middle;fill:#00b900;fill-opacity:1;stroke:none"
       d="m 140.01363,202.49219 c 0,-3.41146 0.39913,-6.09375 2.24809,-8.04688 1.86198,-1.96615 4.40104,-2.94922 7.61719,-2.94922 2.99479,0 5.35156,0.94401 7.07031,2.83203 1.73177,1.875 1.69022,4.49219 1.69022,7.85157 0,3.25521 -0.0236,5.87239 -1.88553,7.85156 -1.86198,1.96615 -4.31641,2.94922 -7.36329,2.94922 -2.98177,0 -5.3776,-0.96354 -7.1875,-2.89063 -1.80989,-1.92708 -2.18949,-4.45963 -2.18949,-7.59765 z m 3.04901,-0.13672 c 0,2.42187 0.20168,4.36198 1.4647,5.82031 1.27605,1.44531 2.96876,2.16797 5.07813,2.16797 2.1875,0 3.86068,-0.69661 5.01953,-2.08984 1.17187,-1.40625 1.04142,-3.39844 1.04142,-5.97657 0,-2.59115 0.13045,-4.59635 -1.04142,-6.01562 -1.17187,-1.43229 -2.84505,-2.14844 -5.01953,-2.14844 -2.1224,0 -3.81511,0.73568 -5.07813,2.20703 -1.26302,1.47135 -1.4647,3.48307 -1.4647,6.03516 z" />
    <path
       sodipodi:nodetypes="ccssccccscsacsscsccsscscac"
       inkscape:connector-curvature="0"
       id="path2017"
       style="font-style:normal;font-variant:normal;font-weight:normal;font-stretch:normal;font-size:medium;line-height:1.25;font-family:'Malgun Gothic';-inkscape-font-specification:'Malgun Gothic';text-align:center;letter-spacing:0px;word-spacing:0px;text-anchor:middle;fill:#00b900;fill-opacity:1;stroke:none"
       d="m 163.96094,207.51172 c 0.88541,0.76823 2.07031,1.38672 3.55468,1.85547 1.4974,0.46875 2.87761,0.70312 4.14063,0.70312 4.17969,0 6.26953,-1.51693 6.26953,-4.55078 0,-0.87239 -0.22135,-1.64062 -0.66406,-2.30469 -0.42969,-0.66406 -0.99609,-1.23047 -1.69922,-1.69922 -0.70313,-0.46875 -2.16797,-1.27604 -4.39453,-2.42187 -2.68229,-1.38021 -4.55078,-2.64974 -5.60547,-3.80859 -1.04167,-1.17188 -1.5625,-2.63673 -1.5625,-4.39454 0,-2.34375 0.95052,-4.19921 2.85156,-5.5664 1.91407,-1.36719 4.27084,-2.05078 7.07031,-2.05078 2.83855,0 5.07987,0.41249 6.66828,2.12048 0.81217,0.87331 0.83432,3.47917 0.83432,3.47917 0,0 -1.17806,-1.19484 -2.98665,-1.88968 -1.63175,-0.62689 -3.59147,-0.78029 -4.9261,-0.78029 -1.82292,0 -3.31381,0.39063 -4.47266,1.17188 -1.14583,0.78125 -1.71875,1.86198 -1.71875,3.24219 0,1.25 0.40365,2.27213 1.21094,3.0664 0.82031,0.78125 2.51302,1.79688 5.07812,3.04688 2.99479,1.49739 5.01302,2.91015 6.05469,4.23828 1.04167,1.32813 1.5625,2.76693 1.5625,4.31641 0,2.48697 -0.89844,4.39452 -2.69531,5.72265 -1.79687,1.31511 -4.28385,1.97266 -7.46094,1.97266 -1.0026,0 -2.26562,-0.16276 -3.78906,-0.48828 -1.51042,-0.3125 -1.9289,-1.21463 -2.52481,-2.14415 -0.52996,-0.82663 -0.7955,-2.83632 -0.7955,-2.83632 z" />
  </g>
</svg>
