<?xml version="1.0" encoding="UTF-8" standalone="no"?>
<!-- Created with Inkscape (http://www.inkscape.org/) -->

<svg
   xmlns:dc="http://purl.org/dc/elements/1.1/"
   xmlns:cc="http://creativecommons.org/ns#"
   xmlns:rdf="http://www.w3.org/1999/02/22-rdf-syntax-ns#"
   xmlns:svg="http://www.w3.org/2000/svg"
   xmlns="http://www.w3.org/2000/svg"
   xmlns:sodipodi="http://sodipodi.sourceforge.net/DTD/sodipodi-0.dtd"
   xmlns:inkscape="http://www.inkscape.org/namespaces/inkscape"
   width="64px"
   height="64px"
   viewBox="0 0 64 64"
   version="1.1"
   id="SVGRoot"
   inkscape:version="0.92.3 (2405546, 2018-03-11)"
   sodipodi:docname="PaVoS_Logo-3.svg">
  <sodipodi:namedview
     id="base"
     pagecolor="#ffffff"
     bordercolor="#666666"
     borderopacity="1.0"
     inkscape:pageopacity="0.0"
     inkscape:pageshadow="2"
     inkscape:zoom="10.634328"
     inkscape:cx="26.019345"
     inkscape:cy="38.822454"
     inkscape:document-units="px"
     inkscape:current-layer="layer1"
     showgrid="false"
     inkscape:window-width="1920"
     inkscape:window-height="1017"
     inkscape:window-x="-8"
     inkscape:window-y="-8"
     inkscape:window-maximized="1"
     inkscape:grid-bbox="true" />
  <defs
     id="defs815">
    <inkscape:path-effect
       effect="powerstroke"
       id="path-effect1619"
       is_visible="true"
       offset_points="0,0.5"
       sort_points="true"
       interpolator_type="CubicBezierJohan"
       interpolator_beta="0.2"
       start_linecap_type="zerowidth"
       linejoin_type="extrp_arc"
       miter_limit="4"
       end_linecap_type="zerowidth" />
    <inkscape:path-effect
       effect="powerstroke"
       id="path-effect1555"
       is_visible="true"
       offset_points="0,0.5"
       sort_points="true"
       interpolator_type="CubicBezierJohan"
       interpolator_beta="0.2"
       start_linecap_type="zerowidth"
       linejoin_type="extrp_arc"
       miter_limit="4"
       end_linecap_type="zerowidth" />
  </defs>
  <metadata
     id="metadata818">
    <rdf:RDF>
      <cc:Work
         rdf:about="">
        <dc:format>image/svg+xml</dc:format>
        <dc:type
           rdf:resource="http://purl.org/dc/dcmitype/StillImage" />
        <dc:title></dc:title>
      </cc:Work>
    </rdf:RDF>
  </metadata>
  <g
     id="layer1"
     inkscape:groupmode="layer"
     inkscape:label="Ebene 1"
     style="display:inline">
    <circle
       style="display:inline;opacity:1;fill:none;fill-opacity:1;fill-rule:nonzero;stroke:none;stroke-width:0.62362206;stroke-linecap:butt;stroke-linejoin:round;stroke-miterlimit:4;stroke-dasharray:none;stroke-dashoffset:0;stroke-opacity:1"
       id="path1374"
       cx="31.819805"
       cy="31.649864"
       r="25.455845" />
    <path
       style="fill:#00b900;fill-opacity:1;stroke:none;stroke-width:1px;stroke-linecap:butt;stroke-linejoin:miter;stroke-opacity:1"
       d="m 13.097467,21.551506 c 1.418226,2.423661 2.604638,4.798984 2.574219,7.761719 -0.03579,3.486212 -1.578305,6.234542 -1.777344,10.601562 -0.145065,3.182804 0.861445,6.752858 3.066407,9.052734 1.815708,1.893868 4.730266,3.087811 7.341796,2.835938 0.279883,-0.02699 0.560283,-0.07164 0.841797,-0.126953 -1.413224,-1.450564 -2.797427,-3.402113 -3.792968,-6.076172 -0.973337,-2.61442 -1.438939,-5.513397 -1.619141,-8.748047 -0.06355,-1.664817 -0.0709,-3.051144 -0.195312,-4.591797 -0.162276,-2.009563 -0.476084,-3.412745 -0.867188,-4.488281 0.400548,1.101508 0.77265,2.428216 1.0625,4.466797 0.222376,1.564019 0.319879,2.905432 0.5,4.578125 0.288253,3.204524 0.84585,6.004856 1.865234,8.490234 0.438211,1.06841 0.939311,1.996929 1.46875,2.828125 -0.927732,-2.196826 -0.995749,-4.841428 -0.224609,-7.046875 1.111809,-3.179758 3.932586,-5.764181 6.947266,-7.126953 0.846161,-0.382503 1.644036,-0.666794 2.417968,-0.912109 -0.08866,-0.186341 -0.177591,-0.374372 -0.273437,-0.554688 -2.482223,-4.669821 -7.190045,-7.534524 -12.955078,-9.158203 -1.442975,-0.406403 -5.149298,-0.909549 -6.38086,-1.785156 z m 33.408204,3.837891 c -1.51833,2.362239 -3.098781,4.497573 -5.753907,5.8125 -3.12425,1.547259 -6.2724,1.416092 -10.255859,3.216796 -2.903254,1.312402 -5.630041,3.826424 -6.681641,6.833985 -0.865957,2.476621 -0.612587,5.61593 0.794922,7.830078 0.570635,0.897663 1.326248,1.723818 2.179688,2.453125 -0.03183,-0.562215 -0.02187,-1.14818 0.09961,-1.779297 0.248116,-1.289003 0.838711,-2.597203 1.763672,-3.890625 1.621157,-2.26695 4.102352,-4.233111 6.457031,-5.498047 1.595951,-0.838581 3.331866,-1.423531 4.822266,-2.080078 2.122086,-0.934815 3.356611,-1.832621 4.238281,-2.890625 -0.891903,1.070284 -2.046171,2.0023 -4.152344,3.068359 -1.462853,0.740437 -3.168082,1.431454 -4.662109,2.335938 -2.258601,1.337945 -4.576694,3.321134 -6.042969,5.521484 -0.831134,1.247234 -1.320404,2.455548 -1.507812,3.597657 -0.149195,0.90923 -0.08659,1.718229 0.07813,2.449218 1.602414,1.080323 3.45313,1.788455 5.27539,1.832032 4.668888,0.111648 9.666036,-2.79301 12.34961,-6.615235 3.038869,-4.328272 3.460744,-9.824073 2.296875,-15.699219 -0.291314,-1.470536 -1.521586,-5.003452 -1.298828,-6.498046 z"
       id="path1508"
       inkscape:connector-curvature="0" />
    <path
       style="color:#000000;font-style:normal;font-variant:normal;font-weight:normal;font-stretch:normal;font-size:medium;line-height:normal;font-family:sans-serif;font-variant-ligatures:normal;font-variant-position:normal;font-variant-caps:normal;font-variant-numeric:normal;font-variant-alternates:normal;font-feature-settings:normal;text-indent:0;text-align:start;text-decoration:none;text-decoration-line:none;text-decoration-style:solid;text-decoration-color:#000000;letter-spacing:normal;word-spacing:normal;text-transform:none;writing-mode:lr-tb;direction:ltr;text-orientation:mixed;dominant-baseline:auto;baseline-shift:baseline;text-anchor:start;white-space:normal;shape-padding:0;clip-rule:nonzero;display:inline;overflow:visible;visibility:visible;opacity:1;isolation:auto;mix-blend-mode:normal;color-interpolation:sRGB;color-interpolation-filters:linearRGB;solid-color:#000000;solid-opacity:1;vector-effect:none;fill:#00b900;fill-opacity:1;fill-rule:nonzero;stroke:none;stroke-width:1.02400005;stroke-linecap:round;stroke-linejoin:miter;stroke-miterlimit:4;stroke-dasharray:none;stroke-dashoffset:0;stroke-opacity:1;color-rendering:auto;image-rendering:auto;shape-rendering:auto;text-rendering:auto;enable-background:accumulate"
       d="M 34.970703 9.9257812 C 29.332964 9.9880079 23.816094 12.666345 20.408203 17.738281 A 1.2568186 1.2568186 0 1 0 22.494141 19.140625 C 28.769163 9.8015601 43.124104 9.6290211 49.501953 21.320312 A 1.2568186 1.2568186 0 1 0 51.707031 20.115234 C 48.12832 13.555068 42.120912 10.255824 36.099609 9.9492188 C 35.723278 9.9300559 35.346552 9.9216328 34.970703 9.9257812 z M 35.603516 17.326172 C 31.635635 17.102693 27.670937 18.743832 25.453125 22.257812 A 0.91115201 0.91115201 0 0 0 26.994141 23.230469 C 30.648413 17.440508 40.364046 17.718035 44.1875 24.482422 A 0.91101338 0.91101338 0 1 0 45.773438 23.585938 C 43.541627 19.637459 39.571396 17.549651 35.603516 17.326172 z M 34.955078 22.923828 C 32.879931 22.846402 30.803629 23.635935 29.210938 25.171875 A 0.65006498 0.65006498 0 1 0 30.113281 26.107422 C 31.653209 24.622367 33.694479 23.983958 35.640625 24.292969 C 37.586771 24.601979 39.45521 25.84038 40.679688 28.263672 A 0.65006498 0.65006498 0 1 0 41.839844 27.677734 C 40.452095 24.93132 38.20334 23.384423 35.84375 23.009766 C 35.548801 22.962933 35.251528 22.934889 34.955078 22.923828 z M 34.222656 27.673828 C 34.01957 27.683704 33.817144 27.709304 33.617188 27.751953 C 33.08397 27.865683 32.569122 28.096615 32.107422 28.457031 A 0.51205122 0.51205122 0 1 0 32.738281 29.263672 C 34.094086 28.205291 36.082069 28.633834 37.060547 30.205078 A 0.51205122 0.51205122 0 1 0 37.929688 29.664062 C 37.09623 28.325693 35.644258 27.604697 34.222656 27.673828 z "
       id="path1772" />
  </g>
</svg>
